<svg width="170" height="52" viewBox="0 0 170 52" fill="none" xmlns="http://www.w3.org/2000/svg">
<path d="M56.2 26V10.736H60.28V16.808H65.008V10.736H69.088V26H65.008V20.048H60.28V26H56.2ZM71.4813 26V14.432H75.3213V26H71.4813ZM73.4013 12.944C72.7613 12.944 72.2413 12.744 71.8413 12.344C71.4413 11.944 71.2413 11.448 71.2413 10.856C71.2413 10.264 71.4413 9.768 71.8413 9.368C72.2413 8.968 72.7613 8.768 73.4013 8.768C74.0573 8.768 74.5773 8.968 74.9613 9.368C75.3613 9.768 75.5613 10.264 75.5613 10.856C75.5613 11.448 75.3613 11.944 74.9613 12.344C74.5773 12.744 74.0573 12.944 73.4013 12.944ZM77.7156 26V15.824C78.2756 15.184 78.9636 14.648 79.7796 14.216C80.6116 13.784 81.5636 13.568 82.6356 13.568C83.9476 13.568 85.0996 13.904 86.0916 14.576L85.0836 17.336C84.8436 17.176 84.5556 17.056 84.2196 16.976C83.8996 16.896 83.6036 16.856 83.3316 16.856C82.9956 16.856 82.6836 16.904 82.3956 17C82.1236 17.08 81.9236 17.176 81.7956 17.288V26H77.7156ZM87.7703 26V14.432H91.6103V26H87.7703ZM89.6903 12.944C89.0503 12.944 88.5303 12.744 88.1303 12.344C87.7303 11.944 87.5303 11.448 87.5303 10.856C87.5303 10.264 87.7303 9.768 88.1303 9.368C88.5303 8.968 89.0503 8.768 89.6903 8.768C90.3463 8.768 90.8663 8.968 91.2503 9.368C91.6503 9.768 91.8503 10.264 91.8503 10.856C91.8503 11.448 91.6503 11.944 91.2503 12.344C90.8663 12.744 90.3463 12.944 89.6903 12.944ZM103.341 27.656L101.397 25.712V19.184C101.397 18.528 101.221 18.024 100.869 17.672C100.517 17.32 100.005 17.144 99.3327 17.144C99.0447 17.144 98.7727 17.176 98.5167 17.24C98.2607 17.304 98.0367 17.392 97.8447 17.504V26H94.0047V15.656C94.6127 15.048 95.4367 14.56 96.4767 14.192C97.5327 13.808 98.6767 13.616 99.9087 13.616C101.685 13.616 103.013 14.024 103.893 14.84C104.789 15.64 105.237 16.728 105.237 18.104V23.912L106.317 25.136L103.341 27.656ZM113.301 30.584C112.037 30.584 110.941 30.392 110.013 30.008C109.085 29.64 108.333 29.216 107.757 28.736L109.005 25.928C109.645 26.376 110.317 26.728 111.021 26.984C111.725 27.24 112.453 27.368 113.205 27.368C114.101 27.368 114.765 27.192 115.197 26.84C115.645 26.504 115.869 26.072 115.869 25.544V24.536C115.549 24.68 115.181 24.792 114.765 24.872C114.365 24.936 113.949 24.968 113.517 24.968C112.557 24.968 111.637 24.776 110.757 24.392C109.877 24.008 109.157 23.4 108.597 22.568C108.037 21.736 107.757 20.64 107.757 19.28C107.757 17.408 108.301 15.992 109.389 15.032C110.493 14.056 111.949 13.568 113.757 13.568C114.461 13.568 115.205 13.64 115.989 13.784C116.789 13.928 117.525 14.136 118.197 14.408C118.869 14.664 119.389 14.976 119.757 15.344V25.496C119.757 26.616 119.461 27.552 118.869 28.304C118.293 29.072 117.517 29.64 116.541 30.008C115.565 30.392 114.485 30.584 113.301 30.584ZM114.117 21.8C114.629 21.8 115.053 21.64 115.389 21.32C115.741 20.984 115.917 20.432 115.917 19.664V17.048C115.725 16.968 115.461 16.896 115.125 16.832C114.789 16.768 114.469 16.736 114.165 16.736C113.397 16.736 112.797 16.96 112.365 17.408C111.949 17.856 111.741 18.472 111.741 19.256C111.741 19.864 111.861 20.36 112.101 20.744C112.341 21.112 112.637 21.384 112.989 21.56C113.357 21.72 113.733 21.8 114.117 21.8ZM128.153 26V23.024L135.497 13.928H128.441V10.736H140.801V13.568L133.289 22.76H140.849V26H128.153ZM149.559 26.144C148.279 26.144 147.143 25.888 146.151 25.376C145.175 24.864 144.407 24.12 143.847 23.144C143.287 22.168 143.007 20.992 143.007 19.616C143.007 17.68 143.543 16.192 144.615 15.152C145.703 14.096 147.159 13.568 148.983 13.568C150.263 13.568 151.303 13.816 152.103 14.312C152.919 14.792 153.519 15.44 153.903 16.256C154.287 17.072 154.479 17.976 154.479 18.968C154.479 19.32 154.455 19.688 154.407 20.072C154.375 20.44 154.319 20.808 154.239 21.176H146.775C146.855 21.992 147.191 22.544 147.783 22.832C148.391 23.12 149.087 23.264 149.871 23.264C150.527 23.264 151.127 23.192 151.671 23.048C152.215 22.888 152.655 22.68 152.991 22.424L154.023 24.824C153.623 25.16 153.023 25.464 152.223 25.736C151.439 26.008 150.551 26.144 149.559 26.144ZM146.775 18.752H151.119C151.119 18.112 150.935 17.576 150.567 17.144C150.215 16.696 149.679 16.472 148.959 16.472C148.271 16.472 147.735 16.68 147.351 17.096C146.967 17.512 146.775 18.064 146.775 18.752ZM165.966 27.656L164.022 25.712V19.184C164.022 18.528 163.846 18.024 163.494 17.672C163.142 17.32 162.63 17.144 161.958 17.144C161.67 17.144 161.398 17.176 161.142 17.24C160.886 17.304 160.662 17.392 160.47 17.504V26H156.63V15.656C157.238 15.048 158.062 14.56 159.102 14.192C160.158 13.808 161.302 13.616 162.534 13.616C164.31 13.616 165.638 14.024 166.518 14.84C167.414 15.64 167.862 16.728 167.862 18.104V23.912L168.942 25.136L165.966 27.656Z" fill="white"/>
<path d="M57.64 44.12C57.1533 44.12 56.71 44.0567 56.31 43.93C55.91 43.7967 55.5733 43.6233 55.3 43.41L55.78 42.61C56.02 42.81 56.29 42.9733 56.59 43.1C56.89 43.2267 57.24 43.29 57.64 43.29C58.12 43.29 58.5 43.19 58.78 42.99C59.06 42.79 59.2 42.52 59.2 42.18C59.2 41.9867 59.16 41.8167 59.08 41.67C59 41.5167 58.8433 41.37 58.61 41.23C58.3833 41.0833 58.0467 40.9267 57.6 40.76C57.12 40.5733 56.7367 40.3867 56.45 40.2C56.1633 40.0067 55.9567 39.79 55.83 39.55C55.71 39.3033 55.65 39.0133 55.65 38.68C55.65 38.3467 55.74 38.0467 55.92 37.78C56.1067 37.5067 56.3767 37.29 56.73 37.13C57.09 36.9633 57.5233 36.88 58.03 36.88C58.4433 36.88 58.8133 36.9233 59.14 37.01C59.4733 37.09 59.7967 37.2067 60.11 37.36L59.76 38.17C59.5333 38.0367 59.2667 37.9267 58.96 37.84C58.66 37.7467 58.3433 37.7 58.01 37.7C57.57 37.7 57.2233 37.7867 56.97 37.96C56.7167 38.1333 56.59 38.3567 56.59 38.63C56.59 38.8033 56.6267 38.9567 56.7 39.09C56.7733 39.2233 56.9167 39.3533 57.13 39.48C57.35 39.6067 57.6767 39.75 58.11 39.91C58.63 40.1033 59.04 40.3067 59.34 40.52C59.6467 40.7333 59.8633 40.9667 59.99 41.22C60.1167 41.4667 60.18 41.75 60.18 42.07C60.18 42.5033 60.07 42.8733 59.85 43.18C59.6367 43.4867 59.3367 43.72 58.95 43.88C58.57 44.04 58.1333 44.12 57.64 44.12ZM63.1836 44.12C62.8836 44.12 62.6003 44.0567 62.3336 43.93C62.0669 43.8033 61.8503 43.6 61.6836 43.32C61.5169 43.0333 61.4336 42.6533 61.4336 42.18V38.8H62.3336V42.06C62.3336 42.4667 62.4203 42.78 62.5936 43C62.7669 43.2133 63.0203 43.32 63.3536 43.32C63.6269 43.32 63.8903 43.2667 64.1436 43.16C64.4036 43.0467 64.6336 42.8967 64.8336 42.71V38.8H65.7336V42.65C65.7336 42.9367 65.7936 43.1267 65.9136 43.22C66.0403 43.3067 66.1769 43.35 66.3236 43.35L66.1336 44.05C65.5136 44.05 65.1303 43.8033 64.9836 43.31C64.7503 43.55 64.4803 43.7467 64.1736 43.9C63.8669 44.0467 63.5369 44.12 63.1836 44.12ZM69.8588 44.12C69.5588 44.12 69.2754 44.0667 69.0088 43.96C68.7488 43.8467 68.5321 43.7167 68.3588 43.57V44H67.5188V36.6H68.4188V39.34C68.5521 39.1867 68.7454 39.04 68.9988 38.9C69.2588 38.7533 69.5654 38.68 69.9188 38.68C70.3188 38.68 70.6921 38.7867 71.0388 39C71.3921 39.2067 71.6754 39.51 71.8888 39.91C72.1021 40.3033 72.2088 40.7833 72.2088 41.35C72.2088 41.7633 72.1421 42.14 72.0088 42.48C71.8754 42.82 71.6954 43.1133 71.4688 43.36C71.2488 43.6 70.9988 43.7867 70.7188 43.92C70.4388 44.0533 70.1521 44.12 69.8588 44.12ZM69.6188 43.32C69.9454 43.32 70.2321 43.24 70.4788 43.08C70.7321 42.92 70.9288 42.6933 71.0688 42.4C71.2154 42.1067 71.2888 41.7667 71.2888 41.38C71.2888 40.98 71.2154 40.6367 71.0688 40.35C70.9288 40.0633 70.7388 39.8433 70.4988 39.69C70.2654 39.5367 70.0054 39.46 69.7188 39.46C69.4321 39.46 69.1721 39.5333 68.9388 39.68C68.7121 39.82 68.5388 39.9733 68.4188 40.14V42.92C68.5721 43.04 68.7521 43.1367 68.9588 43.21C69.1654 43.2833 69.3854 43.32 69.6188 43.32ZM74.8563 44.12C74.4629 44.12 74.1063 44.07 73.7863 43.97C73.4729 43.87 73.2129 43.74 73.0063 43.58L73.3863 42.83C73.5596 42.9767 73.7763 43.1 74.0363 43.2C74.3029 43.2933 74.5863 43.34 74.8863 43.34C75.2596 43.34 75.5396 43.28 75.7263 43.16C75.9196 43.0333 76.0163 42.8733 76.0163 42.68C76.0163 42.54 75.9796 42.4167 75.9063 42.31C75.8396 42.2033 75.7129 42.1 75.5263 42C75.3396 41.8933 75.0696 41.78 74.7163 41.66C74.2296 41.4933 73.8629 41.2967 73.6163 41.07C73.3763 40.8367 73.2563 40.5167 73.2563 40.11C73.2563 39.71 73.4296 39.3733 73.7763 39.1C74.1296 38.82 74.6163 38.68 75.2363 38.68C75.5696 38.68 75.8663 38.7167 76.1263 38.79C76.3863 38.8567 76.6196 38.9433 76.8263 39.05L76.5763 39.79C76.3963 39.6833 76.1896 39.5967 75.9563 39.53C75.7296 39.4633 75.4763 39.43 75.1963 39.43C74.8496 39.43 74.5863 39.5 74.4063 39.64C74.2263 39.78 74.1363 39.9333 74.1363 40.1C74.1363 40.26 74.2063 40.3967 74.3463 40.51C74.4863 40.6233 74.7596 40.7467 75.1663 40.88C75.8263 41.1 76.2863 41.3433 76.5463 41.61C76.8063 41.8767 76.9363 42.21 76.9363 42.61C76.9363 43.0767 76.7463 43.4467 76.3663 43.72C75.9929 43.9867 75.4896 44.12 74.8563 44.12ZM80.234 44.12C79.7407 44.12 79.3073 44.0067 78.934 43.78C78.5673 43.5467 78.284 43.2267 78.084 42.82C77.884 42.4067 77.784 41.9333 77.784 41.4C77.784 40.9 77.884 40.4433 78.084 40.03C78.2907 39.6167 78.584 39.29 78.964 39.05C79.344 38.8033 79.7907 38.68 80.304 38.68C80.5973 38.68 80.854 38.7067 81.074 38.76C81.3007 38.8133 81.5173 38.89 81.724 38.99L81.454 39.75C81.2673 39.6567 81.0873 39.59 80.914 39.55C80.7473 39.5033 80.5607 39.48 80.354 39.48C79.8873 39.48 79.494 39.65 79.174 39.99C78.8607 40.3233 78.704 40.7867 78.704 41.38C78.704 41.74 78.7707 42.0667 78.904 42.36C79.0373 42.6533 79.2207 42.8867 79.454 43.06C79.694 43.2333 79.974 43.32 80.294 43.32C80.5473 43.32 80.764 43.2933 80.944 43.24C81.124 43.18 81.3173 43.0967 81.524 42.99L81.804 43.75C81.5973 43.8633 81.364 43.9533 81.104 44.02C80.8507 44.0867 80.5607 44.12 80.234 44.12ZM82.8508 44V38.8H83.7208V39.93C83.8074 39.71 83.9241 39.5067 84.0708 39.32C84.2174 39.1267 84.4008 38.9733 84.6208 38.86C84.8408 38.74 85.0974 38.68 85.3908 38.68C85.4908 38.68 85.5908 38.6867 85.6908 38.7C85.7908 38.7067 85.8741 38.72 85.9408 38.74L85.6708 39.67C85.5441 39.6167 85.3941 39.59 85.2208 39.59C84.9741 39.59 84.7374 39.66 84.5108 39.8C84.2908 39.94 84.1074 40.1567 83.9608 40.45C83.8208 40.7433 83.7508 41.1167 83.7508 41.57V44H82.8508ZM86.8449 44V38.8H87.7449V44H86.8449ZM87.2949 37.91C87.1216 37.91 86.9716 37.8467 86.8449 37.72C86.7249 37.5933 86.6649 37.4467 86.6649 37.28C86.6649 37.0867 86.7216 36.9333 86.8349 36.82C86.9483 36.7067 87.1016 36.65 87.2949 36.65C87.4683 36.65 87.6149 36.7133 87.7349 36.84C87.8616 36.96 87.9249 37.1067 87.9249 37.28C87.9249 37.4667 87.8683 37.62 87.7549 37.74C87.6416 37.8533 87.4883 37.91 87.2949 37.91ZM91.6849 44.12C91.3849 44.12 91.1016 44.0667 90.8349 43.96C90.5749 43.8467 90.3583 43.7167 90.1849 43.57V44H89.3449V36.6H90.2449V39.34C90.3783 39.1867 90.5716 39.04 90.8249 38.9C91.0849 38.7533 91.3916 38.68 91.7449 38.68C92.1449 38.68 92.5183 38.7867 92.8649 39C93.2183 39.2067 93.5016 39.51 93.7149 39.91C93.9283 40.3033 94.0349 40.7833 94.0349 41.35C94.0349 41.7633 93.9683 42.14 93.8349 42.48C93.7016 42.82 93.5216 43.1133 93.2949 43.36C93.0749 43.6 92.8249 43.7867 92.5449 43.92C92.2649 44.0533 91.9783 44.12 91.6849 44.12ZM91.4449 43.32C91.7716 43.32 92.0583 43.24 92.3049 43.08C92.5583 42.92 92.7549 42.6933 92.8949 42.4C93.0416 42.1067 93.1149 41.7667 93.1149 41.38C93.1149 40.98 93.0416 40.6367 92.8949 40.35C92.7549 40.0633 92.5649 39.8433 92.3249 39.69C92.0916 39.5367 91.8316 39.46 91.5449 39.46C91.2583 39.46 90.9983 39.5333 90.7649 39.68C90.5383 39.82 90.3649 39.9733 90.2449 40.14V42.92C90.3983 43.04 90.5783 43.1367 90.7849 43.21C90.9916 43.2833 91.2116 43.32 91.4449 43.32ZM97.3624 44.12C96.6158 44.12 96.0224 43.8833 95.5824 43.41C95.1491 42.93 94.9324 42.26 94.9324 41.4C94.9324 40.88 95.0291 40.4167 95.2224 40.01C95.4224 39.5967 95.6991 39.2733 96.0524 39.04C96.4058 38.8 96.8158 38.68 97.2824 38.68C97.7824 38.68 98.1958 38.79 98.5224 39.01C98.8558 39.2233 99.1058 39.5133 99.2724 39.88C99.4391 40.2467 99.5224 40.65 99.5224 41.09C99.5224 41.3233 99.5124 41.55 99.4924 41.77H95.8524C95.9124 42.2567 96.0824 42.6367 96.3624 42.91C96.6424 43.1833 97.0124 43.32 97.4724 43.32C97.7724 43.32 98.0424 43.29 98.2824 43.23C98.5224 43.1633 98.7524 43.08 98.9724 42.98L99.1824 43.75C98.9424 43.8567 98.6724 43.9433 98.3724 44.01C98.0724 44.0833 97.7358 44.12 97.3624 44.12ZM95.8424 41.04H98.6924C98.6924 40.5333 98.5658 40.1433 98.3124 39.87C98.0591 39.5967 97.7091 39.46 97.2624 39.46C96.8758 39.46 96.5558 39.5967 96.3024 39.87C96.0491 40.1367 95.8958 40.5267 95.8424 41.04ZM100.712 45.6L100.222 45.32C100.489 44.98 100.702 44.6367 100.862 44.29C101.029 43.9433 101.155 43.5467 101.242 43.1L102.122 43.35C102.055 43.8567 101.895 44.3 101.642 44.68C101.395 45.06 101.085 45.3667 100.712 45.6ZM106.818 44V37H107.768V39.99H111.218V37H112.168V44H111.218V40.81H107.768V44H106.818ZM113.866 44V38.8H114.766V44H113.866ZM114.316 37.91C114.143 37.91 113.993 37.8467 113.866 37.72C113.746 37.5933 113.686 37.4467 113.686 37.28C113.686 37.0867 113.743 36.9333 113.856 36.82C113.97 36.7067 114.123 36.65 114.316 36.65C114.49 36.65 114.636 36.7133 114.756 36.84C114.883 36.96 114.946 37.1067 114.946 37.28C114.946 37.4667 114.89 37.62 114.776 37.74C114.663 37.8533 114.51 37.91 114.316 37.91ZM116.366 44V38.8H117.236V39.93C117.323 39.71 117.44 39.5067 117.586 39.32C117.733 39.1267 117.916 38.9733 118.136 38.86C118.356 38.74 118.613 38.68 118.906 38.68C119.006 38.68 119.106 38.6867 119.206 38.7C119.306 38.7067 119.39 38.72 119.456 38.74L119.186 39.67C119.06 39.6167 118.91 39.59 118.736 39.59C118.49 39.59 118.253 39.66 118.026 39.8C117.806 39.94 117.623 40.1567 117.476 40.45C117.336 40.7433 117.266 41.1167 117.266 41.57V44H116.366ZM122.138 44.12C121.391 44.12 120.798 43.8833 120.358 43.41C119.924 42.93 119.708 42.26 119.708 41.4C119.708 40.88 119.804 40.4167 119.998 40.01C120.198 39.5967 120.474 39.2733 120.828 39.04C121.181 38.8 121.591 38.68 122.058 38.68C122.558 38.68 122.971 38.79 123.298 39.01C123.631 39.2233 123.881 39.5133 124.048 39.88C124.214 40.2467 124.298 40.65 124.298 41.09C124.298 41.3233 124.288 41.55 124.268 41.77H120.628C120.688 42.2567 120.858 42.6367 121.138 42.91C121.418 43.1833 121.788 43.32 122.248 43.32C122.548 43.32 122.818 43.29 123.058 43.23C123.298 43.1633 123.528 43.08 123.748 42.98L123.958 43.75C123.718 43.8567 123.448 43.9433 123.148 44.01C122.848 44.0833 122.511 44.12 122.138 44.12ZM120.618 41.04H123.468C123.468 40.5333 123.341 40.1433 123.088 39.87C122.834 39.5967 122.484 39.46 122.038 39.46C121.651 39.46 121.331 39.5967 121.078 39.87C120.824 40.1367 120.671 40.5267 120.618 41.04ZM125.487 45.6L124.997 45.32C125.264 44.98 125.477 44.6367 125.637 44.29C125.804 43.9433 125.931 43.5467 126.017 43.1L126.897 43.35C126.831 43.8567 126.671 44.3 126.417 44.68C126.171 45.06 125.861 45.3667 125.487 45.6ZM133.333 44.12C132.847 44.12 132.403 44.0567 132.003 43.93C131.603 43.7967 131.267 43.6233 130.993 43.41L131.473 42.61C131.713 42.81 131.983 42.9733 132.283 43.1C132.583 43.2267 132.933 43.29 133.333 43.29C133.813 43.29 134.193 43.19 134.473 42.99C134.753 42.79 134.893 42.52 134.893 42.18C134.893 41.9867 134.853 41.8167 134.773 41.67C134.693 41.5167 134.537 41.37 134.303 41.23C134.077 41.0833 133.74 40.9267 133.293 40.76C132.813 40.5733 132.43 40.3867 132.143 40.2C131.857 40.0067 131.65 39.79 131.523 39.55C131.403 39.3033 131.343 39.0133 131.343 38.68C131.343 38.3467 131.433 38.0467 131.613 37.78C131.8 37.5067 132.07 37.29 132.423 37.13C132.783 36.9633 133.217 36.88 133.723 36.88C134.137 36.88 134.507 36.9233 134.833 37.01C135.167 37.09 135.49 37.2067 135.803 37.36L135.453 38.17C135.227 38.0367 134.96 37.9267 134.653 37.84C134.353 37.7467 134.037 37.7 133.703 37.7C133.263 37.7 132.917 37.7867 132.663 37.96C132.41 38.1333 132.283 38.3567 132.283 38.63C132.283 38.8033 132.32 38.9567 132.393 39.09C132.467 39.2233 132.61 39.3533 132.823 39.48C133.043 39.6067 133.37 39.75 133.803 39.91C134.323 40.1033 134.733 40.3067 135.033 40.52C135.34 40.7333 135.557 40.9667 135.683 41.22C135.81 41.4667 135.873 41.75 135.873 42.07C135.873 42.5033 135.763 42.8733 135.543 43.18C135.33 43.4867 135.03 43.72 134.643 43.88C134.263 44.04 133.827 44.12 133.333 44.12ZM138.877 44.12C138.577 44.12 138.294 44.0567 138.027 43.93C137.76 43.8033 137.544 43.6 137.377 43.32C137.21 43.0333 137.127 42.6533 137.127 42.18V38.8H138.027V42.06C138.027 42.4667 138.114 42.78 138.287 43C138.46 43.2133 138.714 43.32 139.047 43.32C139.32 43.32 139.584 43.2667 139.837 43.16C140.097 43.0467 140.327 42.8967 140.527 42.71V38.8H141.427V42.65C141.427 42.9367 141.487 43.1267 141.607 43.22C141.734 43.3067 141.87 43.35 142.017 43.35L141.827 44.05C141.207 44.05 140.824 43.8033 140.677 43.31C140.444 43.55 140.174 43.7467 139.867 43.9C139.56 44.0467 139.23 44.12 138.877 44.12ZM145.214 44.12C144.721 44.12 144.288 44.0067 143.914 43.78C143.548 43.5467 143.264 43.2267 143.064 42.82C142.864 42.4067 142.764 41.9333 142.764 41.4C142.764 40.9 142.864 40.4433 143.064 40.03C143.271 39.6167 143.564 39.29 143.944 39.05C144.324 38.8033 144.771 38.68 145.284 38.68C145.578 38.68 145.834 38.7067 146.054 38.76C146.281 38.8133 146.498 38.89 146.704 38.99L146.434 39.75C146.248 39.6567 146.068 39.59 145.894 39.55C145.728 39.5033 145.541 39.48 145.334 39.48C144.868 39.48 144.474 39.65 144.154 39.99C143.841 40.3233 143.684 40.7867 143.684 41.38C143.684 41.74 143.751 42.0667 143.884 42.36C144.018 42.6533 144.201 42.8867 144.434 43.06C144.674 43.2333 144.954 43.32 145.274 43.32C145.528 43.32 145.744 43.2933 145.924 43.24C146.104 43.18 146.298 43.0967 146.504 42.99L146.784 43.75C146.578 43.8633 146.344 43.9533 146.084 44.02C145.831 44.0867 145.541 44.12 145.214 44.12ZM149.834 44.12C149.34 44.12 148.907 44.0067 148.534 43.78C148.167 43.5467 147.884 43.2267 147.684 42.82C147.484 42.4067 147.384 41.9333 147.384 41.4C147.384 40.9 147.484 40.4433 147.684 40.03C147.89 39.6167 148.184 39.29 148.564 39.05C148.944 38.8033 149.39 38.68 149.904 38.68C150.197 38.68 150.454 38.7067 150.674 38.76C150.9 38.8133 151.117 38.89 151.324 38.99L151.054 39.75C150.867 39.6567 150.687 39.59 150.514 39.55C150.347 39.5033 150.16 39.48 149.954 39.48C149.487 39.48 149.094 39.65 148.774 39.99C148.46 40.3233 148.304 40.7867 148.304 41.38C148.304 41.74 148.37 42.0667 148.504 42.36C148.637 42.6533 148.82 42.8867 149.054 43.06C149.294 43.2333 149.574 43.32 149.894 43.32C150.147 43.32 150.364 43.2933 150.544 43.24C150.724 43.18 150.917 43.0967 151.124 42.99L151.404 43.75C151.197 43.8633 150.964 43.9533 150.704 44.02C150.45 44.0867 150.16 44.12 149.834 44.12ZM154.433 44.12C153.686 44.12 153.093 43.8833 152.653 43.41C152.219 42.93 152.003 42.26 152.003 41.4C152.003 40.88 152.099 40.4167 152.293 40.01C152.493 39.5967 152.769 39.2733 153.123 39.04C153.476 38.8 153.886 38.68 154.353 38.68C154.853 38.68 155.266 38.79 155.593 39.01C155.926 39.2233 156.176 39.5133 156.343 39.88C156.509 40.2467 156.593 40.65 156.593 41.09C156.593 41.3233 156.583 41.55 156.563 41.77H152.923C152.983 42.2567 153.153 42.6367 153.433 42.91C153.713 43.1833 154.083 43.32 154.543 43.32C154.843 43.32 155.113 43.29 155.353 43.23C155.593 43.1633 155.823 43.08 156.043 42.98L156.253 43.75C156.013 43.8567 155.743 43.9433 155.443 44.01C155.143 44.0833 154.806 44.12 154.433 44.12ZM152.913 41.04H155.763C155.763 40.5333 155.636 40.1433 155.383 39.87C155.129 39.5967 154.779 39.46 154.333 39.46C153.946 39.46 153.626 39.5967 153.373 39.87C153.119 40.1367 152.966 40.5267 152.913 41.04ZM159.872 44.12C159.126 44.12 158.532 43.8833 158.092 43.41C157.659 42.93 157.442 42.26 157.442 41.4C157.442 40.88 157.539 40.4167 157.732 40.01C157.932 39.5967 158.209 39.2733 158.562 39.04C158.916 38.8 159.326 38.68 159.792 38.68C160.292 38.68 160.706 38.79 161.032 39.01C161.366 39.2233 161.616 39.5133 161.782 39.88C161.949 40.2467 162.032 40.65 162.032 41.09C162.032 41.3233 162.022 41.55 162.002 41.77H158.362C158.422 42.2567 158.592 42.6367 158.872 42.91C159.152 43.1833 159.522 43.32 159.982 43.32C160.282 43.32 160.552 43.29 160.792 43.23C161.032 43.1633 161.262 43.08 161.482 42.98L161.692 43.75C161.452 43.8567 161.182 43.9433 160.882 44.01C160.582 44.0833 160.246 44.12 159.872 44.12ZM158.352 41.04H161.202C161.202 40.5333 161.076 40.1433 160.822 39.87C160.569 39.5967 160.219 39.46 159.772 39.46C159.386 39.46 159.066 39.5967 158.812 39.87C158.559 40.1367 158.406 40.5267 158.352 41.04ZM165.202 44.12C164.775 44.12 164.385 44.01 164.032 43.79C163.678 43.57 163.398 43.26 163.192 42.86C162.985 42.4533 162.882 41.9767 162.882 41.43C162.882 40.9033 162.985 40.4333 163.192 40.02C163.405 39.6067 163.685 39.28 164.032 39.04C164.385 38.8 164.772 38.68 165.192 38.68C165.538 38.68 165.835 38.75 166.082 38.89C166.335 39.03 166.532 39.1733 166.672 39.32V36.6H167.572V42.74C167.572 42.9933 167.632 43.16 167.752 43.24C167.878 43.3133 168.015 43.35 168.162 43.35L167.972 44.05C167.338 44.05 166.952 43.7967 166.812 43.29C166.665 43.4967 166.458 43.6867 166.192 43.86C165.932 44.0333 165.602 44.12 165.202 44.12ZM165.402 43.32C165.648 43.32 165.882 43.2633 166.102 43.15C166.328 43.03 166.518 42.8767 166.672 42.69V40.11C166.545 39.95 166.368 39.8033 166.142 39.67C165.915 39.53 165.665 39.46 165.392 39.46C165.072 39.46 164.792 39.5467 164.552 39.72C164.312 39.8933 164.125 40.1267 163.992 40.42C163.865 40.7067 163.802 41.0333 163.802 41.4C163.802 41.7667 163.872 42.0967 164.012 42.39C164.152 42.6767 164.342 42.9033 164.582 43.07C164.828 43.2367 165.102 43.32 165.402 43.32Z" fill="black"/>
<path d="M57.64 44.12C57.1533 44.12 56.71 44.0567 56.31 43.93C55.91 43.7967 55.5733 43.6233 55.3 43.41L55.78 42.61C56.02 42.81 56.29 42.9733 56.59 43.1C56.89 43.2267 57.24 43.29 57.64 43.29C58.12 43.29 58.5 43.19 58.78 42.99C59.06 42.79 59.2 42.52 59.2 42.18C59.2 41.9867 59.16 41.8167 59.08 41.67C59 41.5167 58.8433 41.37 58.61 41.23C58.3833 41.0833 58.0467 40.9267 57.6 40.76C57.12 40.5733 56.7367 40.3867 56.45 40.2C56.1633 40.0067 55.9567 39.79 55.83 39.55C55.71 39.3033 55.65 39.0133 55.65 38.68C55.65 38.3467 55.74 38.0467 55.92 37.78C56.1067 37.5067 56.3767 37.29 56.73 37.13C57.09 36.9633 57.5233 36.88 58.03 36.88C58.4433 36.88 58.8133 36.9233 59.14 37.01C59.4733 37.09 59.7967 37.2067 60.11 37.36L59.76 38.17C59.5333 38.0367 59.2667 37.9267 58.96 37.84C58.66 37.7467 58.3433 37.7 58.01 37.7C57.57 37.7 57.2233 37.7867 56.97 37.96C56.7167 38.1333 56.59 38.3567 56.59 38.63C56.59 38.8033 56.6267 38.9567 56.7 39.09C56.7733 39.2233 56.9167 39.3533 57.13 39.48C57.35 39.6067 57.6767 39.75 58.11 39.91C58.63 40.1033 59.04 40.3067 59.34 40.52C59.6467 40.7333 59.8633 40.9667 59.99 41.22C60.1167 41.4667 60.18 41.75 60.18 42.07C60.18 42.5033 60.07 42.8733 59.85 43.18C59.6367 43.4867 59.3367 43.72 58.95 43.88C58.57 44.04 58.1333 44.12 57.64 44.12ZM63.1836 44.12C62.8836 44.12 62.6003 44.0567 62.3336 43.93C62.0669 43.8033 61.8503 43.6 61.6836 43.32C61.5169 43.0333 61.4336 42.6533 61.4336 42.18V38.8H62.3336V42.06C62.3336 42.4667 62.4203 42.78 62.5936 43C62.7669 43.2133 63.0203 43.32 63.3536 43.32C63.6269 43.32 63.8903 43.2667 64.1436 43.16C64.4036 43.0467 64.6336 42.8967 64.8336 42.71V38.8H65.7336V42.65C65.7336 42.9367 65.7936 43.1267 65.9136 43.22C66.0403 43.3067 66.1769 43.35 66.3236 43.35L66.1336 44.05C65.5136 44.05 65.1303 43.8033 64.9836 43.31C64.7503 43.55 64.4803 43.7467 64.1736 43.9C63.8669 44.0467 63.5369 44.12 63.1836 44.12ZM69.8588 44.12C69.5588 44.12 69.2754 44.0667 69.0088 43.96C68.7488 43.8467 68.5321 43.7167 68.3588 43.57V44H67.5188V36.6H68.4188V39.34C68.5521 39.1867 68.7454 39.04 68.9988 38.9C69.2588 38.7533 69.5654 38.68 69.9188 38.68C70.3188 38.68 70.6921 38.7867 71.0388 39C71.3921 39.2067 71.6754 39.51 71.8888 39.91C72.1021 40.3033 72.2088 40.7833 72.2088 41.35C72.2088 41.7633 72.1421 42.14 72.0088 42.48C71.8754 42.82 71.6954 43.1133 71.4688 43.36C71.2488 43.6 70.9988 43.7867 70.7188 43.92C70.4388 44.0533 70.1521 44.12 69.8588 44.12ZM69.6188 43.32C69.9454 43.32 70.2321 43.24 70.4788 43.08C70.7321 42.92 70.9288 42.6933 71.0688 42.4C71.2154 42.1067 71.2888 41.7667 71.2888 41.38C71.2888 40.98 71.2154 40.6367 71.0688 40.35C70.9288 40.0633 70.7388 39.8433 70.4988 39.69C70.2654 39.5367 70.0054 39.46 69.7188 39.46C69.4321 39.46 69.1721 39.5333 68.9388 39.68C68.7121 39.82 68.5388 39.9733 68.4188 40.14V42.92C68.5721 43.04 68.7521 43.1367 68.9588 43.21C69.1654 43.2833 69.3854 43.32 69.6188 43.32ZM74.8563 44.12C74.4629 44.12 74.1063 44.07 73.7863 43.97C73.4729 43.87 73.2129 43.74 73.0063 43.58L73.3863 42.83C73.5596 42.9767 73.7763 43.1 74.0363 43.2C74.3029 43.2933 74.5863 43.34 74.8863 43.34C75.2596 43.34 75.5396 43.28 75.7263 43.16C75.9196 43.0333 76.0163 42.8733 76.0163 42.68C76.0163 42.54 75.9796 42.4167 75.9063 42.31C75.8396 42.2033 75.7129 42.1 75.5263 42C75.3396 41.8933 75.0696 41.78 74.7163 41.66C74.2296 41.4933 73.8629 41.2967 73.6163 41.07C73.3763 40.8367 73.2563 40.5167 73.2563 40.11C73.2563 39.71 73.4296 39.3733 73.7763 39.1C74.1296 38.82 74.6163 38.68 75.2363 38.68C75.5696 38.68 75.8663 38.7167 76.1263 38.79C76.3863 38.8567 76.6196 38.9433 76.8263 39.05L76.5763 39.79C76.3963 39.6833 76.1896 39.5967 75.9563 39.53C75.7296 39.4633 75.4763 39.43 75.1963 39.43C74.8496 39.43 74.5863 39.5 74.4063 39.64C74.2263 39.78 74.1363 39.9333 74.1363 40.1C74.1363 40.26 74.2063 40.3967 74.3463 40.51C74.4863 40.6233 74.7596 40.7467 75.1663 40.88C75.8263 41.1 76.2863 41.3433 76.5463 41.61C76.8063 41.8767 76.9363 42.21 76.9363 42.61C76.9363 43.0767 76.7463 43.4467 76.3663 43.72C75.9929 43.9867 75.4896 44.12 74.8563 44.12ZM80.234 44.12C79.7407 44.12 79.3073 44.0067 78.934 43.78C78.5673 43.5467 78.284 43.2267 78.084 42.82C77.884 42.4067 77.784 41.9333 77.784 41.4C77.784 40.9 77.884 40.4433 78.084 40.03C78.2907 39.6167 78.584 39.29 78.964 39.05C79.344 38.8033 79.7907 38.68 80.304 38.68C80.5973 38.68 80.854 38.7067 81.074 38.76C81.3007 38.8133 81.5173 38.89 81.724 38.99L81.454 39.75C81.2673 39.6567 81.0873 39.59 80.914 39.55C80.7473 39.5033 80.5607 39.48 80.354 39.48C79.8873 39.48 79.494 39.65 79.174 39.99C78.8607 40.3233 78.704 40.7867 78.704 41.38C78.704 41.74 78.7707 42.0667 78.904 42.36C79.0373 42.6533 79.2207 42.8867 79.454 43.06C79.694 43.2333 79.974 43.32 80.294 43.32C80.5473 43.32 80.764 43.2933 80.944 43.24C81.124 43.18 81.3173 43.0967 81.524 42.99L81.804 43.75C81.5973 43.8633 81.364 43.9533 81.104 44.02C80.8507 44.0867 80.5607 44.12 80.234 44.12ZM82.8508 44V38.8H83.7208V39.93C83.8074 39.71 83.9241 39.5067 84.0708 39.32C84.2174 39.1267 84.4008 38.9733 84.6208 38.86C84.8408 38.74 85.0974 38.68 85.3908 38.68C85.4908 38.68 85.5908 38.6867 85.6908 38.7C85.7908 38.7067 85.8741 38.72 85.9408 38.74L85.6708 39.67C85.5441 39.6167 85.3941 39.59 85.2208 39.59C84.9741 39.59 84.7374 39.66 84.5108 39.8C84.2908 39.94 84.1074 40.1567 83.9608 40.45C83.8208 40.7433 83.7508 41.1167 83.7508 41.57V44H82.8508ZM86.8449 44V38.8H87.7449V44H86.8449ZM87.2949 37.91C87.1216 37.91 86.9716 37.8467 86.8449 37.72C86.7249 37.5933 86.6649 37.4467 86.6649 37.28C86.6649 37.0867 86.7216 36.9333 86.8349 36.82C86.9483 36.7067 87.1016 36.65 87.2949 36.65C87.4683 36.65 87.6149 36.7133 87.7349 36.84C87.8616 36.96 87.9249 37.1067 87.9249 37.28C87.9249 37.4667 87.8683 37.62 87.7549 37.74C87.6416 37.8533 87.4883 37.91 87.2949 37.91ZM91.6849 44.12C91.3849 44.12 91.1016 44.0667 90.8349 43.96C90.5749 43.8467 90.3583 43.7167 90.1849 43.57V44H89.3449V36.6H90.2449V39.34C90.3783 39.1867 90.5716 39.04 90.8249 38.9C91.0849 38.7533 91.3916 38.68 91.7449 38.68C92.1449 38.68 92.5183 38.7867 92.8649 39C93.2183 39.2067 93.5016 39.51 93.7149 39.91C93.9283 40.3033 94.0349 40.7833 94.0349 41.35C94.0349 41.7633 93.9683 42.14 93.8349 42.48C93.7016 42.82 93.5216 43.1133 93.2949 43.36C93.0749 43.6 92.8249 43.7867 92.5449 43.92C92.2649 44.0533 91.9783 44.12 91.6849 44.12ZM91.4449 43.32C91.7716 43.32 92.0583 43.24 92.3049 43.08C92.5583 42.92 92.7549 42.6933 92.8949 42.4C93.0416 42.1067 93.1149 41.7667 93.1149 41.38C93.1149 40.98 93.0416 40.6367 92.8949 40.35C92.7549 40.0633 92.5649 39.8433 92.3249 39.69C92.0916 39.5367 91.8316 39.46 91.5449 39.46C91.2583 39.46 90.9983 39.5333 90.7649 39.68C90.5383 39.82 90.3649 39.9733 90.2449 40.14V42.92C90.3983 43.04 90.5783 43.1367 90.7849 43.21C90.9916 43.2833 91.2116 43.32 91.4449 43.32ZM97.3624 44.12C96.6158 44.12 96.0224 43.8833 95.5824 43.41C95.1491 42.93 94.9324 42.26 94.9324 41.4C94.9324 40.88 95.0291 40.4167 95.2224 40.01C95.4224 39.5967 95.6991 39.2733 96.0524 39.04C96.4058 38.8 96.8158 38.68 97.2824 38.68C97.7824 38.68 98.1958 38.79 98.5224 39.01C98.8558 39.2233 99.1058 39.5133 99.2724 39.88C99.4391 40.2467 99.5224 40.65 99.5224 41.09C99.5224 41.3233 99.5124 41.55 99.4924 41.77H95.8524C95.9124 42.2567 96.0824 42.6367 96.3624 42.91C96.6424 43.1833 97.0124 43.32 97.4724 43.32C97.7724 43.32 98.0424 43.29 98.2824 43.23C98.5224 43.1633 98.7524 43.08 98.9724 42.98L99.1824 43.75C98.9424 43.8567 98.6724 43.9433 98.3724 44.01C98.0724 44.0833 97.7358 44.12 97.3624 44.12ZM95.8424 41.04H98.6924C98.6924 40.5333 98.5658 40.1433 98.3124 39.87C98.0591 39.5967 97.7091 39.46 97.2624 39.46C96.8758 39.46 96.5558 39.5967 96.3024 39.87C96.0491 40.1367 95.8958 40.5267 95.8424 41.04ZM100.712 45.6L100.222 45.32C100.489 44.98 100.702 44.6367 100.862 44.29C101.029 43.9433 101.155 43.5467 101.242 43.1L102.122 43.35C102.055 43.8567 101.895 44.3 101.642 44.68C101.395 45.06 101.085 45.3667 100.712 45.6ZM106.818 44V37H107.768V39.99H111.218V37H112.168V44H111.218V40.81H107.768V44H106.818ZM113.866 44V38.8H114.766V44H113.866ZM114.316 37.91C114.143 37.91 113.993 37.8467 113.866 37.72C113.746 37.5933 113.686 37.4467 113.686 37.28C113.686 37.0867 113.743 36.9333 113.856 36.82C113.97 36.7067 114.123 36.65 114.316 36.65C114.49 36.65 114.636 36.7133 114.756 36.84C114.883 36.96 114.946 37.1067 114.946 37.28C114.946 37.4667 114.89 37.62 114.776 37.74C114.663 37.8533 114.51 37.91 114.316 37.91ZM116.366 44V38.8H117.236V39.93C117.323 39.71 117.44 39.5067 117.586 39.32C117.733 39.1267 117.916 38.9733 118.136 38.86C118.356 38.74 118.613 38.68 118.906 38.68C119.006 38.68 119.106 38.6867 119.206 38.7C119.306 38.7067 119.39 38.72 119.456 38.74L119.186 39.67C119.06 39.6167 118.91 39.59 118.736 39.59C118.49 39.59 118.253 39.66 118.026 39.8C117.806 39.94 117.623 40.1567 117.476 40.45C117.336 40.7433 117.266 41.1167 117.266 41.57V44H116.366ZM122.138 44.12C121.391 44.12 120.798 43.8833 120.358 43.41C119.924 42.93 119.708 42.26 119.708 41.4C119.708 40.88 119.804 40.4167 119.998 40.01C120.198 39.5967 120.474 39.2733 120.828 39.04C121.181 38.8 121.591 38.68 122.058 38.68C122.558 38.68 122.971 38.79 123.298 39.01C123.631 39.2233 123.881 39.5133 124.048 39.88C124.214 40.2467 124.298 40.65 124.298 41.09C124.298 41.3233 124.288 41.55 124.268 41.77H120.628C120.688 42.2567 120.858 42.6367 121.138 42.91C121.418 43.1833 121.788 43.32 122.248 43.32C122.548 43.32 122.818 43.29 123.058 43.23C123.298 43.1633 123.528 43.08 123.748 42.98L123.958 43.75C123.718 43.8567 123.448 43.9433 123.148 44.01C122.848 44.0833 122.511 44.12 122.138 44.12ZM120.618 41.04H123.468C123.468 40.5333 123.341 40.1433 123.088 39.87C122.834 39.5967 122.484 39.46 122.038 39.46C121.651 39.46 121.331 39.5967 121.078 39.87C120.824 40.1367 120.671 40.5267 120.618 41.04ZM125.487 45.6L124.997 45.32C125.264 44.98 125.477 44.6367 125.637 44.29C125.804 43.9433 125.931 43.5467 126.017 43.1L126.897 43.35C126.831 43.8567 126.671 44.3 126.417 44.68C126.171 45.06 125.861 45.3667 125.487 45.6ZM133.333 44.12C132.847 44.12 132.403 44.0567 132.003 43.93C131.603 43.7967 131.267 43.6233 130.993 43.41L131.473 42.61C131.713 42.81 131.983 42.9733 132.283 43.1C132.583 43.2267 132.933 43.29 133.333 43.29C133.813 43.29 134.193 43.19 134.473 42.99C134.753 42.79 134.893 42.52 134.893 42.18C134.893 41.9867 134.853 41.8167 134.773 41.67C134.693 41.5167 134.537 41.37 134.303 41.23C134.077 41.0833 133.74 40.9267 133.293 40.76C132.813 40.5733 132.43 40.3867 132.143 40.2C131.857 40.0067 131.65 39.79 131.523 39.55C131.403 39.3033 131.343 39.0133 131.343 38.68C131.343 38.3467 131.433 38.0467 131.613 37.78C131.8 37.5067 132.07 37.29 132.423 37.13C132.783 36.9633 133.217 36.88 133.723 36.88C134.137 36.88 134.507 36.9233 134.833 37.01C135.167 37.09 135.49 37.2067 135.803 37.36L135.453 38.17C135.227 38.0367 134.96 37.9267 134.653 37.84C134.353 37.7467 134.037 37.7 133.703 37.7C133.263 37.7 132.917 37.7867 132.663 37.96C132.41 38.1333 132.283 38.3567 132.283 38.63C132.283 38.8033 132.32 38.9567 132.393 39.09C132.467 39.2233 132.61 39.3533 132.823 39.48C133.043 39.6067 133.37 39.75 133.803 39.91C134.323 40.1033 134.733 40.3067 135.033 40.52C135.34 40.7333 135.557 40.9667 135.683 41.22C135.81 41.4667 135.873 41.75 135.873 42.07C135.873 42.5033 135.763 42.8733 135.543 43.18C135.33 43.4867 135.03 43.72 134.643 43.88C134.263 44.04 133.827 44.12 133.333 44.12ZM138.877 44.12C138.577 44.12 138.294 44.0567 138.027 43.93C137.76 43.8033 137.544 43.6 137.377 43.32C137.21 43.0333 137.127 42.6533 137.127 42.18V38.8H138.027V42.06C138.027 42.4667 138.114 42.78 138.287 43C138.46 43.2133 138.714 43.32 139.047 43.32C139.32 43.32 139.584 43.2667 139.837 43.16C140.097 43.0467 140.327 42.8967 140.527 42.71V38.8H141.427V42.65C141.427 42.9367 141.487 43.1267 141.607 43.22C141.734 43.3067 141.87 43.35 142.017 43.35L141.827 44.05C141.207 44.05 140.824 43.8033 140.677 43.31C140.444 43.55 140.174 43.7467 139.867 43.9C139.56 44.0467 139.23 44.12 138.877 44.12ZM145.214 44.12C144.721 44.12 144.288 44.0067 143.914 43.78C143.548 43.5467 143.264 43.2267 143.064 42.82C142.864 42.4067 142.764 41.9333 142.764 41.4C142.764 40.9 142.864 40.4433 143.064 40.03C143.271 39.6167 143.564 39.29 143.944 39.05C144.324 38.8033 144.771 38.68 145.284 38.68C145.578 38.68 145.834 38.7067 146.054 38.76C146.281 38.8133 146.498 38.89 146.704 38.99L146.434 39.75C146.248 39.6567 146.068 39.59 145.894 39.55C145.728 39.5033 145.541 39.48 145.334 39.48C144.868 39.48 144.474 39.65 144.154 39.99C143.841 40.3233 143.684 40.7867 143.684 41.38C143.684 41.74 143.751 42.0667 143.884 42.36C144.018 42.6533 144.201 42.8867 144.434 43.06C144.674 43.2333 144.954 43.32 145.274 43.32C145.528 43.32 145.744 43.2933 145.924 43.24C146.104 43.18 146.298 43.0967 146.504 42.99L146.784 43.75C146.578 43.8633 146.344 43.9533 146.084 44.02C145.831 44.0867 145.541 44.12 145.214 44.12ZM149.834 44.12C149.34 44.12 148.907 44.0067 148.534 43.78C148.167 43.5467 147.884 43.2267 147.684 42.82C147.484 42.4067 147.384 41.9333 147.384 41.4C147.384 40.9 147.484 40.4433 147.684 40.03C147.89 39.6167 148.184 39.29 148.564 39.05C148.944 38.8033 149.39 38.68 149.904 38.68C150.197 38.68 150.454 38.7067 150.674 38.76C150.9 38.8133 151.117 38.89 151.324 38.99L151.054 39.75C150.867 39.6567 150.687 39.59 150.514 39.55C150.347 39.5033 150.16 39.48 149.954 39.48C149.487 39.48 149.094 39.65 148.774 39.99C148.46 40.3233 148.304 40.7867 148.304 41.38C148.304 41.74 148.37 42.0667 148.504 42.36C148.637 42.6533 148.82 42.8867 149.054 43.06C149.294 43.2333 149.574 43.32 149.894 43.32C150.147 43.32 150.364 43.2933 150.544 43.24C150.724 43.18 150.917 43.0967 151.124 42.99L151.404 43.75C151.197 43.8633 150.964 43.9533 150.704 44.02C150.45 44.0867 150.16 44.12 149.834 44.12ZM154.433 44.12C153.686 44.12 153.093 43.8833 152.653 43.41C152.219 42.93 152.003 42.26 152.003 41.4C152.003 40.88 152.099 40.4167 152.293 40.01C152.493 39.5967 152.769 39.2733 153.123 39.04C153.476 38.8 153.886 38.68 154.353 38.68C154.853 38.68 155.266 38.79 155.593 39.01C155.926 39.2233 156.176 39.5133 156.343 39.88C156.509 40.2467 156.593 40.65 156.593 41.09C156.593 41.3233 156.583 41.55 156.563 41.77H152.923C152.983 42.2567 153.153 42.6367 153.433 42.91C153.713 43.1833 154.083 43.32 154.543 43.32C154.843 43.32 155.113 43.29 155.353 43.23C155.593 43.1633 155.823 43.08 156.043 42.98L156.253 43.75C156.013 43.8567 155.743 43.9433 155.443 44.01C155.143 44.0833 154.806 44.12 154.433 44.12ZM152.913 41.04H155.763C155.763 40.5333 155.636 40.1433 155.383 39.87C155.129 39.5967 154.779 39.46 154.333 39.46C153.946 39.46 153.626 39.5967 153.373 39.87C153.119 40.1367 152.966 40.5267 152.913 41.04ZM159.872 44.12C159.126 44.12 158.532 43.8833 158.092 43.41C157.659 42.93 157.442 42.26 157.442 41.4C157.442 40.88 157.539 40.4167 157.732 40.01C157.932 39.5967 158.209 39.2733 158.562 39.04C158.916 38.8 159.326 38.68 159.792 38.68C160.292 38.68 160.706 38.79 161.032 39.01C161.366 39.2233 161.616 39.5133 161.782 39.88C161.949 40.2467 162.032 40.65 162.032 41.09C162.032 41.3233 162.022 41.55 162.002 41.77H158.362C158.422 42.2567 158.592 42.6367 158.872 42.91C159.152 43.1833 159.522 43.32 159.982 43.32C160.282 43.32 160.552 43.29 160.792 43.23C161.032 43.1633 161.262 43.08 161.482 42.98L161.692 43.75C161.452 43.8567 161.182 43.9433 160.882 44.01C160.582 44.0833 160.246 44.12 159.872 44.12ZM158.352 41.04H161.202C161.202 40.5333 161.076 40.1433 160.822 39.87C160.569 39.5967 160.219 39.46 159.772 39.46C159.386 39.46 159.066 39.5967 158.812 39.87C158.559 40.1367 158.406 40.5267 158.352 41.04ZM165.202 44.12C164.775 44.12 164.385 44.01 164.032 43.79C163.678 43.57 163.398 43.26 163.192 42.86C162.985 42.4533 162.882 41.9767 162.882 41.43C162.882 40.9033 162.985 40.4333 163.192 40.02C163.405 39.6067 163.685 39.28 164.032 39.04C164.385 38.8 164.772 38.68 165.192 38.68C165.538 38.68 165.835 38.75 166.082 38.89C166.335 39.03 166.532 39.1733 166.672 39.32V36.6H167.572V42.74C167.572 42.9933 167.632 43.16 167.752 43.24C167.878 43.3133 168.015 43.35 168.162 43.35L167.972 44.05C167.338 44.05 166.952 43.7967 166.812 43.29C166.665 43.4967 166.458 43.6867 166.192 43.86C165.932 44.0333 165.602 44.12 165.202 44.12ZM165.402 43.32C165.648 43.32 165.882 43.2633 166.102 43.15C166.328 43.03 166.518 42.8767 166.672 42.69V40.11C166.545 39.95 166.368 39.8033 166.142 39.67C165.915 39.53 165.665 39.46 165.392 39.46C165.072 39.46 164.792 39.5467 164.552 39.72C164.312 39.8933 164.125 40.1267 163.992 40.42C163.865 40.7067 163.802 41.0333 163.802 41.4C163.802 41.7667 163.872 42.0967 164.012 42.39C164.152 42.6767 164.342 42.9033 164.582 43.07C164.828 43.2367 165.102 43.32 165.402 43.32Z" fill="white"/>
<path d="M9.34872 42.0603C5.41378 42.11 2.21112 38.9074 2.26084 34.9724L2.58731 9.13503C2.66556 2.94174 10.1568 -0.105933 14.5365 4.27373L40.0474 29.7847C44.4271 34.1643 41.3794 41.6556 35.1861 41.7339L9.34872 42.0603Z" fill="#C43256"/>
<path d="M41.5517 9.37498C45.4866 9.32526 48.6893 12.5279 48.6396 16.4629L48.3131 42.3003C48.2348 48.4936 40.7436 51.5412 36.3639 47.1616L10.853 21.6506C6.4733 17.271 9.52098 9.7797 15.7143 9.70144L41.5517 9.37498Z" fill="#1A95D0" fill-opacity="0.8"/>
</svg>
